HIERARCHY
ROOT SpineBase
{
  OFFSET 0.000000 0.000000 0.000000
  CHANNELS 6 Xposition Yposition Zposition Zrotation Xrotation Yrotation
  JOINT SpineMid
  {
    OFFSET -0.000000 31.806934 0.000000
    CHANNELS 3 Zrotation Xrotation Yrotation
    JOINT SpineShoulder
    {
      OFFSET 0.259221 23.571433 -0.548164
      CHANNELS 3 Zrotation Xrotation Yrotation
      JOINT Neck
      {
        OFFSET 0.134826 7.805816 -0.472624
        CHANNELS 3 Zrotation Xrotation Yrotation
        JOINT Head
        {
          OFFSET 4.826462 12.207205 3.494703
          CHANNELS 3 Zrotation Xrotation Yrotation
          End Site
          {
            OFFSET 0 0 0
          }
        }
      }
      JOINT ShoulderLeft
      {
        OFFSET -10.650322 -3.461944 -11.285895
        CHANNELS 3 Zrotation Xrotation Yrotation
        JOINT ElbowLeft
        {
          OFFSET -6.221368 -26.259267 -8.027922
          CHANNELS 3 Zrotation Xrotation Yrotation
          JOINT WristLeft
          {
            OFFSET 3.111378 -20.669863 -5.098145
            CHANNELS 3 Zrotation Xrotation Yrotation
            JOINT HandLeft
            {
              OFFSET 1.073835 -7.845121 1.777158
              CHANNELS 3 Zrotation Xrotation Yrotation
              JOINT HandTipLeft
              {
                OFFSET 0.498081 -7.877715 -0.669016
                CHANNELS 3 Zrotation Xrotation Yrotation
                End Site
                {
                  OFFSET 0 0 0
                }
              }
              JOINT ThumbLeft
              {
                OFFSET 4.482082 1.888549 2.087524
                CHANNELS 3 Zrotation Xrotation Yrotation
                End Site
                {
                  OFFSET 0 0 0
                }
              }
            }
          }
        }
      }
      JOINT ShoulderRight
      {
        OFFSET 11.772148 -4.286642 10.819427
        CHANNELS 3 Zrotation Xrotation Yrotation
        JOINT ElbowRight
        {
          OFFSET 2.680584 -26.352594 6.209868
          CHANNELS 3 Zrotation Xrotation Yrotation
          JOINT WristRight
          {
            OFFSET 0.792695 -26.453865 -5.410984
            CHANNELS 3 Zrotation Xrotation Yrotation
            JOINT HandRight
            {
              OFFSET -0.527485 -8.306222 0.502240
              CHANNELS 3 Zrotation Xrotation Yrotation
              JOINT HandTipRight
              {
                OFFSET -0.110989 -6.950921 -0.577598
                CHANNELS 3 Zrotation Xrotation Yrotation
                End Site
                {
                  OFFSET 0 0 0
                }
              }
              JOINT ThumbRight
              {
                OFFSET -2.092817 -2.320511 0.935379
                CHANNELS 3 Zrotation Xrotation Yrotation
                End Site
                {
                  OFFSET 0 0 0
                }
              }
            }
          }
        }
      }
    }
  }
  JOINT HipLeft
  {
    OFFSET -4.995513 1.563640 -8.210732
    CHANNELS 3 Zrotation Xrotation Yrotation
    JOINT KneeLeft
    {
      OFFSET -13.956204 -35.853590 -3.507935
      CHANNELS 3 Zrotation Xrotation Yrotation
      JOINT AnkleLeft
      {
        OFFSET -9.584359 -37.328996 5.278666
        CHANNELS 3 Zrotation Xrotation Yrotation
        JOINT FootLeft
        {
          OFFSET 0.423735 -7.748028 -6.965118
          CHANNELS 3 Zrotation Xrotation Yrotation
          End Site
          {
            OFFSET 0 0 0
          }
        }
      }
    }
  }
  JOINT HipRight
  {
    OFFSET 5.494496 0.301009 1.255493
    CHANNELS 3 Zrotation Xrotation Yrotation
    JOINT KneeRight
    {
      OFFSET -7.637077 -38.696638 2.950282
      CHANNELS 3 Zrotation Xrotation Yrotation
      JOINT AnkleRight
      {
        OFFSET -10.136701 -36.679750 10.073807
        CHANNELS 3 Zrotation Xrotation Yrotation
        JOINT FootRight
        {
          OFFSET 1.724397 -8.226669 -5.297874
          CHANNELS 3 Zrotation Xrotation Yrotation
          End Site
          {
            OFFSET 0 0 0
          }
        }
      }
    }
  }
}
MOTION
Frames: 15
Frame Time: 0.033333
-19.421497 80.836193 344.963972 -13.099075 1.642116 -41.330617 -0.876370 -0.771152 41.145288 -0.325250 -0.343373 -0.606735 -13.609978 4.958894 6.963492 0.000000 0.000000 0.000000 -2.820632 3.877365 5.356057 -3.678776 -0.067799 1.990516 3.467511 -3.758960 -10.221674 -0.348240 3.605151 6.163049 0.000000 0.000000 0.000000 0.000000 0.000000 0.000000 -2.333663 -1.178804 -3.355266 7.925703 1.311623 5.958851 -3.359327 9.609612 -2.288547 8.033442 -1.950719 2.299129 0.000000 0.000000 0.000000 0.000000 0.000000 0.000000 -0.597081 27.853912 34.957170 -11.037077 -26.699286 4.641678 9.472668 7.858360 -0.258142 0.000000 0.000000 0.000000 5.530927 18.849324 39.898616 -8.451045 -10.558623 -1.109109 18.064833 16.429368 -4.038695 0.000000 0.000000 0.000000
-19.620387 80.795081 345.854126 -14.817520 1.494628 -41.324320 -1.595686 -0.898292 41.123104 -0.292921 -0.503228 -0.723043 -13.102410 5.045904 7.584718 0.000000 0.000000 0.000000 -3.334436 4.362050 6.339772 -3.058242 0.609963 2.257315 1.854484 -3.168433 -11.799885 -0.607214 7.354103 8.409719 0.000000 0.000000 0.000000 0.000000 0.000000 0.000000 -1.746499 -1.124345 -3.633358 8.524419 2.743765 6.747566 -3.152616 8.483463 -2.711379 8.816808 -1.649241 2.464834 0.000000 0.000000 0.000000 0.000000 0.000000 0.000000 -2.914176 36.684947 33.764945 -18.223965 -39.002737 2.634003 15.847961 9.598362 -2.105772 0.000000 0.000000 0.000000 6.118507 21.238622 39.788585 -8.697437 -11.741700 -1.076258 10.806625 11.903895 0.469410 0.000000 0.000000 0.000000
-20.204332 81.242362 346.390122 -17.118594 1.516954 -41.657687 -1.971214 -1.083849 41.439013 -0.525605 -0.596242 -0.873382 -12.356182 5.656212 8.311343 0.000000 0.000000 0.000000 -3.303364 4.618813 7.429474 -2.402988 1.837743 2.693455 -1.132925 -1.292394 -13.615976 -5.709586 9.484960 11.889693 0.000000 0.000000 0.000000 0.000000 0.000000 0.000000 -0.552849 -0.795562 -3.799076 9.152811 3.851202 7.527869 -4.095071 8.460063 -3.094968 11.112645 -1.315117 2.958036 0.000000 0.000000 0.000000 0.000000 0.000000 0.000000 -4.909356 46.782923 33.398736 -29.655881 -53.388533 -3.793172 19.270664 18.493399 -1.000184 0.000000 0.000000 0.000000 7.878985 23.543364 39.964828 -8.893662 -11.987165 -1.025787 4.294000 6.385864 3.780568 0.000000 0.000000 0.000000
-21.078006 82.031506 346.425720 -19.871475 1.933627 -41.424674 -1.481047 -1.203596 41.195613 -0.647133 -0.698625 -1.009790 -11.560882 6.998985 8.920308 0.000000 0.000000 0.000000 -3.119068 4.635655 8.395447 -2.727084 3.621850 3.486957 -6.176544 -6.273642 -19.269187 10.853518 14.409337 13.222817 0.000000 0.000000 0.000000 0.000000 0.000000 0.000000 0.319734 0.694802 -3.647318 9.696843 3.775092 8.210581 -6.768372 8.902945 -3.520795 15.238791 -3.127206 3.809414 0.000000 0.000000 0.000000 0.000000 0.000000 0.000000 -4.658139 57.320741 32.268394 -59.056525 -64.592975 -27.603737 24.444909 21.380121 1.079170 0.000000 0.000000 0.000000 11.664511 24.972508 39.360015 -9.013471 -10.692154 -0.997144 -1.886038 -0.314769 5.973012 0.000000 0.000000 0.000000
-22.455763 83.208495 346.033998 -23.722436 2.921185 -40.818146 -0.521156 -1.232553 40.657835 -1.432422 -0.434852 -1.168381 -10.167752 7.219693 9.670600 0.000000 0.000000 0.000000 -2.229995 4.764206 9.484135 -3.341965 4.212699 4.238058 -8.838415 4.724389 -18.260546 21.866883 6.632111 14.016195 0.000000 0.000000 0.000000 0.000000 0.000000 0.000000 2.069346 1.521871 -3.592697 11.190516 2.972191 8.818268 -7.100303 8.122122 -3.815980 14.734213 -0.281567 3.913856 0.000000 0.000000 0.000000 0.000000 0.000000 0.000000 0.049438 67.825435 29.119576 -103.108082 -63.745940 -66.142165 33.577165 30.702379 1.278163 0.000000 0.000000 0.000000 18.029606 25.850067 38.067087 -9.375318 -7.835370 -1.183229 -1.532776 1.124594 5.573970 0.000000 0.000000 0.000000
-24.084796 84.607255 345.301357 -27.995409 4.241791 -38.857379 0.997114 -1.035580 38.879372 -2.288240 0.053952 -1.261605 -9.087789 6.411772 10.370684 0.000000 0.000000 0.000000 -1.888945 3.912329 10.587479 -2.666276 5.509661 4.917814 -14.260272 14.722089 -17.299198 34.589259 1.627008 17.742393 0.000000 0.000000 0.000000 0.000000 0.000000 0.000000 4.137907 1.450599 -3.633393 11.954375 2.818164 9.464541 -8.538441 7.048141 -4.304523 15.328513 1.428866 4.224791 0.000000 0.000000 0.000000 0.000000 0.000000 0.000000 15.285055 76.174880 16.761715 -127.080193 -55.833311 -86.011923 43.611876 48.134543 -0.385323 0.000000 0.000000 0.000000 25.584229 25.517358 35.351005 -8.513825 -4.488146 -1.062624 1.896676 6.655251 3.178572 0.000000 0.000000 0.000000
-25.689893 86.179871 344.468975 -32.254000 5.594956 -37.534493 2.318854 -0.924131 37.832903 -2.924688 0.408931 -1.361238 -6.474489 4.321097 10.685690 0.000000 0.000000 0.000000 -1.770673 2.578801 11.658396 -1.704052 6.649071 5.411899 -16.243216 23.421336 -14.311168 46.046906 -4.138986 21.703406 0.000000 0.000000 0.000000 0.000000 0.000000 0.000000 6.470970 1.014560 -3.689249 12.416337 3.831968 10.178250 -9.315452 6.400494 -4.866904 15.216693 0.491818 4.526667 0.000000 0.000000 0.000000 0.000000 0.000000 0.000000 46.076323 80.788662 -9.528182 -136.097118 -44.871009 -90.967936 54.932498 60.865228 -1.774890 0.000000 0.000000 0.000000 32.426276 25.189686 33.412352 -7.119774 -1.389991 -0.927618 8.670338 14.291593 -1.580236 0.000000 0.000000 0.000000
-27.286053 87.471654 343.550235 -36.297381 7.101764 -35.194709 2.840160 -1.194839 35.907793 -3.313651 0.696865 -1.480773 -4.430350 1.748636 11.105770 0.000000 0.000000 0.000000 -1.913821 1.264356 12.748721 -0.053741 7.218076 5.745932 -16.400644 26.763457 -13.619951 52.905137 -4.938875 24.755229 0.000000 0.000000 0.000000 0.000000 0.000000 0.000000 8.455260 0.548124 -3.829916 14.287370 4.267796 10.844761 -10.614141 6.840609 -5.112880 13.729410 -0.043816 4.881274 0.000000 0.000000 0.000000 0.000000 0.000000 0.000000 88.483892 81.455886 -48.541998 -138.133762 -34.771490 -91.753117 60.743814 71.161639 2.420902 0.000000 0.000000 0.000000 39.328671 23.702551 30.875670 -5.839713 1.576855 -0.977007 11.832676 17.321546 -4.640717 0.000000 0.000000 0.000000
-28.845714 88.638258 342.815353 -40.241948 8.362500 -33.325989 2.997946 -1.131055 34.602290 -3.271788 0.826178 -1.611102 -3.894734 -0.396172 11.573662 0.000000 0.000000 0.000000 -2.620765 0.231139 13.727625 1.726736 7.252669 6.027760 -15.437016 28.955808 -13.193149 55.906950 -7.878561 26.519189 0.000000 0.000000 0.000000 0.000000 0.000000 0.000000 9.753191 0.310295 -3.958594 17.086248 4.713251 11.459884 -11.175184 2.764659 -5.871204 11.741391 6.043421 4.963665 0.000000 0.000000 0.000000 0.000000 0.000000 0.000000 106.762050 80.041586 -63.224544 -132.373447 -25.282128 -86.895614 46.436179 73.924641 27.204813 0.000000 0.000000 0.000000 45.147669 23.374958 28.802940 -5.212635 2.487639 -0.837023 14.001019 15.511073 -7.342864 0.000000 0.000000 0.000000
-30.401470 89.453170 342.416870 -43.712478 9.242252 -30.118384 2.678487 -0.922125 32.020209 -2.812249 0.805949 -1.737113 -4.454559 -2.285698 11.960300 0.000000 0.000000 0.000000 -3.352938 -0.232138 14.509680 3.304115 6.735842 6.251509 -14.554201 29.523958 -13.754455 54.747026 -9.739111 26.832845 0.000000 0.000000 0.000000 0.000000 0.000000 0.000000 11.738579 -1.224893 -4.267605 17.121593 5.678897 12.065922 -7.671017 -0.453206 -6.148293 6.250110 10.502857 4.967348 0.000000 0.000000 0.000000 0.000000 0.000000 0.000000 106.591686 80.176912 -62.497528 -120.928936 -19.684679 -81.939566 33.116504 68.511980 47.792463 0.000000 0.000000 0.000000 51.410147 22.016305 25.720576 -5.010798 3.786792 -0.846358 14.119512 21.500837 -8.285579 0.000000 0.000000 0.000000
-31.873610 89.562762 342.488695 -46.621813 9.702914 -27.041309 1.482158 -0.735821 29.514966 -2.073882 0.565914 -1.916822 -4.013945 -4.670523 12.158792 0.000000 0.000000 0.000000 -3.512279 -0.363942 15.252009 4.129223 6.202430 6.628417 -17.945279 28.724919 -17.398069 48.387170 -5.025509 27.314256 0.000000 0.000000 0.000000 0.000000 0.000000 0.000000 13.494556 -3.575343 -5.047988 17.086447 7.008443 12.786630 -4.749623 -0.483360 -5.986127 4.573262 12.366618 4.961081 0.000000 0.000000 0.000000 0.000000 0.000000 0.000000 103.766992 83.144936 -62.417486 -100.512017 -18.669971 -73.171902 33.629599 53.323329 50.084151 0.000000 0.000000 0.000000 57.560399 21.234874 22.658715 -7.124790 4.908216 -1.360623 12.068296 21.898971 -6.737319 0.000000 0.000000 0.000000
-33.257006 89.191240 343.031405 -49.112009 9.700991 -25.266850 0.579243 -0.197819 28.227711 -0.958378 0.140924 -2.076197 -3.693568 -7.070671 12.220486 0.000000 0.000000 0.000000 -3.864652 0.554584 15.995447 2.955727 5.761154 7.519222 -17.802152 25.402328 -22.772965 35.937417 -3.978624 26.149225 0.000000 0.000000 0.000000 0.000000 0.000000 0.000000 14.895693 -5.918797 -5.832964 15.687589 8.422532 13.506441 -1.384290 0.629447 -5.782996 2.662610 14.278580 5.115395 0.000000 0.000000 0.000000 0.000000 0.000000 0.000000 66.968034 86.564763 -28.569849 -76.629614 -17.603444 -58.639880 35.993449 30.173467 49.068680 0.000000 0.000000 0.000000 62.111678 21.863720 20.301102 -9.213290 4.896830 -1.693219 9.310940 23.953184 -4.328319 0.000000 0.000000 0.000000
-34.382134 88.579739 343.796947 -51.215030 9.584702 -24.549679 0.123951 0.141886 27.812237 -0.202016 -0.201543 -2.218611 -5.035423 -8.247632 12.586973 0.000000 0.000000 0.000000 -3.277372 2.300446 16.757413 -0.046751 5.215841 8.553155 -18.686537 21.618264 -29.770868 23.302982 -5.506284 25.121997 0.000000 0.000000 0.000000 0.000000 0.000000 0.000000 16.171965 -8.035027 -6.621440 13.734406 9.757632 14.373684 1.518535 1.772663 -5.762627 2.349983 17.269999 5.397165 0.000000 0.000000 0.000000 0.000000 0.000000 0.000000 -10.119032 84.157281 45.479770 -51.953388 -17.126100 -39.757997 31.211133 8.208765 47.627976 0.000000 0.000000 0.000000 66.274462 22.834584 18.583084 -11.579956 5.658472 -2.316900 10.989032 31.834085 -4.040273 0.000000 0.000000 0.000000
-35.437082 87.363737 344.374608 -52.464569 9.666568 -23.929616 0.277562 0.209795 27.341537 0.425363 -0.511837 -2.306918 -7.165442 -8.683980 12.919399 0.000000 0.000000 0.000000 -2.605047 4.612394 17.278279 -4.618619 4.585602 9.538625 -20.511040 16.525210 -39.248631 30.963639 -2.430317 26.377191 0.000000 0.000000 0.000000 0.000000 0.000000 0.000000 16.490498 -10.143214 -7.556216 10.990557 9.894490 15.290767 6.244323 1.944964 -5.764597 2.407460 17.466740 4.755968 0.000000 0.000000 0.000000 0.000000 0.000000 0.000000 -23.162790 78.954622 55.775070 -34.658939 -16.295050 -25.399858 29.866295 -9.282126 44.079250 0.000000 0.000000 0.000000 70.093503 22.997981 17.403439 -14.336014 6.916929 -3.036879 13.533613 45.725862 -4.224957 0.000000 0.000000 0.000000
-36.714530 86.046285 344.962911 -53.543889 9.533291 -24.245781 0.621667 0.341811 27.695006 0.382326 -0.344137 -2.271610 -8.671285 -9.397599 13.123166 0.000000 0.000000 0.000000 -1.244789 6.900791 17.663480 -9.355074 3.621702 10.110739 -14.168820 18.067090 -36.122790 24.988930 -10.752268 22.228736 0.000000 0.000000 0.000000 0.000000 0.000000 0.000000 17.450925 -13.459321 -8.747076 7.882419 9.681850 16.207485 8.894576 1.714913 -6.162507 4.833575 13.502825 3.803148 0.000000 0.000000 0.000000 0.000000 0.000000 0.000000 -27.120946 76.005575 58.989352 -26.517870 -18.271354 -18.245272 27.208805 -11.891083 40.348828 0.000000 0.000000 0.000000 73.888593 24.116762 16.282347 -16.684209 8.223372 -3.629615 -12.919574 69.859571 20.803244 0.000000 0.000000 0.000000
